<?xml version="1.0" standalone="no"?>
<!DOCTYPE svg PUBLIC "-//W3C//DTD SVG 20010904//EN"
 "http://www.w3.org/TR/2001/REC-SVG-20010904/DTD/svg10.dtd">
<svg version="1.0" xmlns="http://www.w3.org/2000/svg"
 width="900.000000pt" height="900.000000pt" viewBox="0 0 900.000000 900.000000"
 preserveAspectRatio="xMidYMid meet">
<metadata>
Created by potrace 1.16, written by Peter Selinger 2001-2019
</metadata>
<g transform="translate(0.000000,900.000000) scale(0.100000,-0.100000)"
fill="#000000" stroke="none">
<path d="M4040 8609 c-58 -4 -164 -17 -235 -29 -72 -11 -150 -23 -175 -25 -66
-8 -237 -57 -480 -138 -179 -59 -254 -91 -445 -187 -576 -290 -944 -569 -1319
-1000 -94 -108 -266 -367 -296 -446 -8 -20 1 -13 36 27 123 141 285 286 381
340 132 75 383 188 548 248 463 168 501 182 635 241 148 65 365 179 555 292
33 20 62 35 64 32 5 -5 -60 -86 -118 -147 -63 -67 -145 -130 -287 -225 -208
-138 -324 -194 -829 -403 -282 -116 -449 -197 -610 -294 -141 -86 -211 -143
-367 -301 -196 -198 -325 -367 -408 -532 -60 -121 -89 -240 -35 -149 32 55
354 368 465 453 140 107 293 215 360 254 146 86 386 197 575 265 327 118 857
348 1013 440 268 158 532 410 758 725 121 168 354 539 354 563 0 4 -8 6 -17 6
-10 -1 -65 -5 -123 -10z"/>
<path d="M4653 8604 c-21 -5 -21 -5 7 -52 34 -55 108 -275 140 -415 20 -88 24
-97 38 -86 16 12 16 11 2 -4 -13 -14 -15 -31 -7 -100 8 -81 2 -323 -12 -465
-4 -46 -3 -76 4 -84 7 -8 7 -9 -1 -5 -8 5 -15 -20 -23 -76 -54 -386 -205 -896
-351 -1187 -105 -208 -292 -459 -426 -570 -43 -36 -134 -114 -203 -173 -68
-60 -291 -242 -495 -405 -508 -406 -606 -503 -793 -785 -145 -218 -236 -442
-286 -707 -79 -414 -103 -614 -92 -785 28 -466 65 -708 144 -959 87 -276 229
-548 393 -758 85 -107 159 -176 264 -245 80 -52 213 -118 221 -109 2 2 -25 40
-61 85 -272 337 -395 679 -366 1021 32 370 147 695 325 915 201 251 397 412
650 535 136 67 199 90 335 125 169 42 228 47 727 52 266 3 481 9 478 12 -2 4
9 5 25 3 44 -6 192 72 261 138 48 47 60 67 78 124 25 80 26 145 6 241 -8 38
-15 99 -15 134 0 77 17 109 91 169 80 65 101 99 96 150 -5 50 -25 74 -109 135
-32 23 -58 47 -58 53 0 6 25 28 55 48 114 79 158 156 134 235 -6 22 -34 67
-61 101 -50 61 -78 115 -78 147 0 85 54 149 197 235 112 67 187 131 203 173 6
15 10 50 10 79 0 45 -5 60 -34 97 -18 24 -62 68 -97 98 -110 93 -303 293 -358
371 -70 100 -126 211 -155 312 -22 76 -49 272 -61 443 -3 39 -12 149 -20 245
-8 96 -17 220 -20 275 -17 255 -58 412 -161 615 -63 125 -139 245 -153 242 -7
-1 -10 2 -6 7 3 6 -6 33 -20 61 -14 27 -23 50 -19 50 3 0 25 -12 49 -26 25
-14 50 -22 56 -18 7 4 9 3 5 -4 -3 -6 27 -34 73 -66 155 -110 312 -243 410
-349 102 -110 183 -251 221 -387 31 -107 39 -314 16 -396 -26 -87 -89 -187
-179 -281 -84 -87 -82 -91 18 -35 140 79 294 220 355 327 16 29 38 82 47 118
15 58 16 74 4 144 -17 103 -76 260 -134 359 -113 194 -280 324 -734 576 -30
17 -58 26 -65 22 -7 -4 -10 -4 -6 1 9 10 -28 36 -134 94 -43 23 -78 44 -78 47
0 2 37 -10 83 -27 144 -53 169 -61 183 -55 7 3 13 1 11 -5 -1 -5 59 -38 133
-72 244 -114 381 -210 585 -412 299 -295 429 -447 598 -695 139 -204 137 -201
252 -340 57 -69 159 -179 227 -245 221 -215 591 -588 669 -675 245 -272 449
-669 548 -1065 126 -503 146 -1070 56 -1530 -58 -294 -91 -392 -197 -595 -165
-318 -398 -614 -618 -789 -185 -147 -298 -216 -425 -257 -78 -26 -67 -29 51
-14 75 10 194 43 240 68 205 112 359 237 539 439 171 191 301 383 400 588 135
281 216 545 276 905 56 335 48 826 -21 1292 -140 946 -353 1466 -843 2061 -89
107 -90 108 -111 90 -21 -18 -21 -18 -3 3 17 20 16 23 -55 100 -91 99 -307
303 -413 390 -100 82 -357 254 -565 378 -52 31 -102 61 -110 66 -70 42 -251
140 -333 180 -214 102 -726 274 -758 254 -7 -4 -9 -3 -6 3 7 12 2 13 -198 49
-134 23 -408 40 -462 28z"/>
<path d="M4271 8538 c-72 -188 -295 -592 -409 -743 -294 -387 -737 -749 -1187
-969 -82 -41 -204 -95 -270 -120 -66 -26 -131 -52 -145 -57 -14 -6 -110 -42
-215 -79 -551 -197 -688 -266 -946 -472 -124 -99 -307 -290 -392 -408 -79
-112 -176 -303 -211 -415 -39 -128 -39 -148 -3 -75 84 165 214 321 398 475
309 258 610 398 1167 541 288 74 401 105 515 140 84 26 314 133 437 203 41 24
89 52 107 62 324 185 643 454 780 658 174 259 314 631 373 991 19 118 38 330
29 330 -2 0 -15 -28 -28 -62z"/>
<path d="M4514 8351 c0 -228 -14 -386 -45 -504 -6 -21 -12 -50 -14 -65 -2 -15
-11 -51 -20 -81 -9 -30 -18 -62 -20 -71 -4 -21 -66 -180 -99 -253 -86 -191
-286 -491 -475 -712 -127 -149 -561 -585 -676 -679 -55 -45 -156 -124 -224
-176 -496 -380 -623 -484 -783 -638 -121 -117 -345 -390 -455 -556 -194 -289
-322 -659 -350 -1009 -15 -174 -8 -582 10 -712 30 -207 80 -389 149 -550 121
-278 357 -733 427 -820 43 -54 -61 52 -128 130 -333 389 -542 769 -640 1160
-52 208 -70 563 -42 822 12 104 12 125 0 140 -13 16 -12 17 4 4 15 -12 17 -11
17 7 0 75 87 421 146 580 165 444 519 881 1124 1387 313 262 641 534 739 613
103 84 138 119 73 73 -15 -10 -106 -62 -202 -116 -96 -54 -206 -116 -245 -138
-38 -22 -88 -50 -110 -62 -513 -287 -593 -338 -845 -541 -371 -299 -654 -616
-764 -856 -93 -203 -217 -641 -193 -683 6 -12 6 -16 -1 -11 -15 9 -19 -9 -38
-169 -13 -107 -15 -184 -11 -325 17 -526 80 -801 273 -1189 132 -266 286 -472
559 -747 238 -241 403 -369 751 -586 33 -20 99 -61 147 -92 49 -31 91 -56 94
-56 3 0 -32 40 -78 88 -138 145 -244 303 -368 549 -135 268 -197 452 -252 740
-51 272 -72 507 -73 803 0 310 11 390 79 598 104 314 244 560 471 833 197 235
228 267 865 894 351 345 592 642 892 1095 203 307 298 537 372 903 34 166 41
242 24 264 -13 16 -12 17 4 4 16 -12 17 -10 17 31 0 25 3 67 7 93 5 40 4 47
-8 40 -11 -6 -12 -5 -1 6 28 30 8 373 -34 574 -47 231 -49 229 -50 -34z"/>
<path d="M2245 6134 c-277 -67 -705 -249 -997 -423 -327 -196 -602 -502 -717
-801 -117 -303 -133 -717 -45 -1220 35 -203 75 -346 166 -590 29 -77 120 -272
125 -267 1 2 -11 44 -27 93 -86 253 -121 711 -89 1154 9 124 9 154 -3 168 -12
15 -11 16 4 3 15 -11 18 -11 18 0 0 8 9 70 20 139 76 487 251 814 587 1098
216 181 397 297 888 567 88 48 162 89 164 91 9 8 -36 2 -94 -12z"/>
<path d="M3173 2527 c-100 -109 -193 -320 -239 -542 -25 -123 -25 -352 0 -495
39 -222 98 -359 230 -535 60 -80 254 -262 337 -316 179 -117 426 -184 769
-209 177 -13 450 -2 504 20 20 8 19 9 -4 10 -14 0 -54 7 -90 14 -62 13 -66 13
-90 -7 l-25 -22 19 22 c21 26 28 22 -84 52 -41 11 -84 23 -94 27 -15 6 -17 4
-11 -7 5 -7 -4 -4 -19 9 -16 12 -34 22 -40 22 -44 0 -285 121 -424 212 -166
109 -350 287 -467 449 -127 176 -250 471 -261 626 l-5 78 36 -87 c100 -243
240 -432 467 -630 72 -64 98 -76 52 -26 l-29 33 32 -29 c18 -16 30 -32 28 -36
-3 -4 4 -15 15 -25 11 -10 20 -14 20 -10 0 5 15 -5 33 -21 38 -36 170 -123
282 -186 241 -137 424 -205 695 -259 102 -21 144 -24 360 -23 210 0 264 3 380
23 396 67 782 201 1095 379 329 188 648 459 795 676 40 59 41 60 -123 -72
-294 -236 -443 -334 -660 -437 -318 -149 -643 -248 -990 -302 -150 -23 -203
-27 -412 -27 -207 0 -257 3 -365 22 -280 51 -508 140 -788 309 -364 219 -525
380 -695 693 -87 160 -163 414 -174 576 -3 52 -9 94 -13 94 -4 0 -25 -19 -47
-43z"/>
</g>
</svg>
