<?xml version="1.0" standalone="no"?>
<!DOCTYPE svg PUBLIC "-//W3C//DTD SVG 20010904//EN"
 "http://www.w3.org/TR/2001/REC-SVG-20010904/DTD/svg10.dtd">
<svg version="1.0" xmlns="http://www.w3.org/2000/svg"
 width="64.000000pt" height="64.000000pt" viewBox="0 0 64.000000 64.000000"
 preserveAspectRatio="xMidYMid meet">
<metadata>
Created by potrace 1.16, written by Peter Selinger 2001-2019
</metadata>
<g transform="translate(0.000000,64.000000) scale(0.100000,-0.100000)"
fill="#000000" stroke="none">
<path d="M171 373 c-32 -39 -68 -124 -77 -185 -6 -35 -5 -40 11 -37 12 3 26
30 45 83 44 123 66 145 136 131 l34 -6 0 -99 0 -100 95 0 c57 0 95 -4 95 -10
0 -6 -87 -10 -240 -10 -275 0 -263 5 -215 -90 l25 -50 240 0 240 0 25 50 c33
66 33 90 -1 90 l-27 0 6 75 c6 78 -5 104 -29 71 -11 -15 -13 -14 -23 16 -6 19
-25 50 -41 70 l-30 36 -120 0 -120 0 -29 -35z"/>
</g>
</svg>
