<?xml version="1.0" standalone="no"?>
<!DOCTYPE svg PUBLIC "-//W3C//DTD SVG 20010904//EN"
 "http://www.w3.org/TR/2001/REC-SVG-20010904/DTD/svg10.dtd">
<svg version="1.0" xmlns="http://www.w3.org/2000/svg"
 width="700.000000pt" height="700.000000pt" viewBox="0 0 700.000000 700.000000"
 preserveAspectRatio="xMidYMid meet">
<metadata>
Created by potrace 1.11, written by Peter Selinger 2001-2013
</metadata>
<g transform="translate(0.000000,700.000000) scale(0.100000,-0.100000)"
fill="#000000" stroke="none">
<path d="M3120 6693 c-104 -11 -333 -46 -385 -59 -33 -8 -150 -45 -260 -81
-154 -52 -241 -88 -380 -158 -357 -182 -581 -336 -814 -560 -147 -142 -237
-247 -328 -385 -121 -181 -119 -188 13 -60 66 64 144 132 174 152 108 70 286
150 565 253 380 140 503 195 743 332 62 36 115 63 118 61 9 -10 -89 -118 -154
-171 -199 -161 -312 -220 -882 -462 -178 -76 -331 -154 -443 -228 -113 -74
-319 -278 -429 -425 -75 -98 -149 -234 -164 -297 -6 -29 -5 -28 32 15 67 79
246 250 345 330 214 172 403 279 689 390 502 195 791 328 935 431 103 73 279
239 370 349 96 115 270 371 355 523 l32 57 -49 -2 c-26 0 -64 -3 -83 -5z"/>
<path d="M3613 6678 c54 -126 70 -170 97 -263 16 -61 35 -127 42 -147 7 -26 9
-109 5 -265 -6 -256 -26 -397 -97 -668 -100 -384 -204 -619 -368 -830 -103
-133 -232 -249 -637 -575 -476 -383 -578 -486 -729 -740 -103 -174 -149 -317
-213 -665 -25 -136 -27 -171 -27 -385 0 -245 14 -393 55 -594 76 -374 305
-785 523 -941 72 -50 184 -111 192 -102 3 3 -24 43 -59 90 -241 316 -307 600
-226 976 53 242 132 401 291 578 158 177 327 296 543 382 182 72 255 82 718
91 l409 8 63 31 c89 44 159 110 179 168 19 55 20 109 5 219 -17 119 -10 140
68 217 59 58 67 70 67 103 0 33 -7 44 -64 96 l-65 59 30 25 c141 119 152 162
70 274 -55 75 -66 107 -50 153 18 53 44 79 156 153 128 84 149 109 149 181 l0
55 -172 172 c-173 171 -219 228 -276 342 -61 122 -79 227 -112 654 -23 311
-33 391 -61 491 -25 91 -94 238 -155 330 -47 72 -74 123 -74 140 0 36 281
-173 425 -316 84 -85 156 -196 193 -297 23 -65 26 -88 27 -213 l0 -140 -33
-61 c-19 -34 -55 -86 -80 -115 -83 -95 -83 -95 -37 -71 105 53 246 181 296
267 44 77 53 138 33 226 -42 185 -137 342 -271 449 -72 58 -321 214 -424 267
-49 24 -179 103 -179 108 0 11 202 -68 315 -123 216 -107 277 -153 501 -376
213 -213 285 -298 417 -491 135 -197 203 -274 557 -632 444 -448 535 -571 666
-896 205 -509 232 -1249 63 -1735 -79 -224 -295 -553 -477 -723 -128 -120
-287 -231 -381 -265 -67 -25 -69 -32 -7 -23 188 25 353 125 556 336 294 304
468 643 559 1088 44 218 54 352 48 630 -13 568 -135 1143 -326 1540 -100 208
-254 441 -407 615 -86 98 -337 343 -417 407 -159 128 -526 356 -751 467 -187
93 -475 192 -701 241 -149 33 -453 48 -442 23z"/>
<path d="M3307 6605 c-37 -91 -174 -347 -245 -455 -202 -311 -571 -631 -948
-823 -157 -79 -192 -94 -512 -212 -441 -164 -543 -214 -714 -347 -109 -85
-291 -275 -349 -363 -58 -87 -121 -213 -148 -293 -30 -88 -26 -94 15 -26 78
130 172 234 314 350 218 178 442 281 846 389 405 109 481 133 619 199 194 93
405 223 555 343 96 77 250 236 296 305 96 144 204 405 252 609 28 117 54 298
50 350 l-3 43 -28 -69z"/>
<path d="M3510 6484 c0 -188 -11 -286 -50 -449 -61 -256 -198 -511 -434 -805
-33 -41 -170 -186 -305 -321 -200 -200 -279 -272 -426 -384 -482 -370 -643
-513 -809 -720 -230 -288 -341 -510 -408 -816 -21 -95 -22 -130 -23 -414 0
-344 10 -426 76 -626 50 -150 270 -605 349 -719 63 -93 -23 -5 -143 145 -230
287 -390 610 -444 895 -15 77 -18 148 -18 365 0 178 4 284 12 310 6 22 26 103
44 180 91 398 241 659 579 1008 146 151 285 273 700 617 168 139 307 255 310
258 10 10 -63 -31 -600 -336 -340 -193 -511 -322 -765 -577 -230 -230 -309
-350 -389 -585 -58 -174 -78 -257 -112 -485 -29 -190 -4 -589 51 -808 66 -260
213 -544 398 -767 114 -137 343 -359 468 -453 134 -100 469 -317 469 -303 0 3
-29 38 -65 78 -115 127 -209 279 -312 502 -86 188 -134 364 -174 634 -26 177
-38 599 -20 723 28 189 142 465 276 664 119 178 226 297 645 720 479 484 588
611 825 965 169 252 241 405 299 639 32 124 59 280 53 303 -3 10 -1 18 4 18
12 0 11 350 -1 447 -16 114 -41 237 -51 248 -5 5 -9 -55 -9 -151z"/>
<path d="M1722 4764 c-194 -52 -491 -176 -694 -290 -313 -176 -546 -439 -632
-713 -47 -150 -59 -261 -53 -496 6 -209 18 -318 58 -503 28 -127 99 -338 149
-443 40 -84 42 -81 15 21 -47 172 -69 477 -54 763 5 104 6 194 3 200 -4 7 -3
8 2 4 5 -5 18 46 30 117 82 476 256 731 694 1020 101 67 400 242 545 319 39
21 11 21 -63 1z"/>
<path d="M2457 1949 c-75 -88 -152 -274 -177 -432 -19 -118 -8 -328 24 -450
29 -114 92 -239 167 -334 67 -84 216 -215 295 -259 175 -98 483 -154 775 -141
168 8 217 21 114 32 -38 3 -83 12 -100 20 -16 7 -55 18 -85 25 -30 7 -64 16
-75 21 -11 4 -49 20 -85 34 -90 36 -247 126 -338 195 -91 69 -220 199 -287
290 -94 129 -194 362 -210 490 -8 66 2 59 38 -29 64 -149 180 -307 316 -431
45 -39 81 -68 81 -64 0 5 8 -1 18 -13 29 -37 266 -189 384 -246 114 -55 204
-87 358 -129 79 -21 105 -23 355 -23 259 0 275 1 396 28 522 116 956 349 1265
681 73 77 139 167 103 140 -8 -6 -68 -54 -134 -106 -297 -234 -483 -335 -811
-441 -304 -98 -525 -132 -814 -124 -207 6 -290 19 -455 73 -237 78 -540 260
-706 424 -184 181 -318 454 -351 718 -7 50 -15 92 -19 92 -4 0 -23 -18 -42
-41z"/>
</g>
</svg>
